<?xml version="1.0" encoding="utf-8"?>
<!-- Generator: Adobe Illustrator 18.0.0, SVG Export Plug-In . SVG Version: 6.00 Build 0)  -->
<!DOCTYPE svg PUBLIC "-//W3C//DTD SVG 1.1//EN" "http://www.w3.org/Graphics/SVG/1.1/DTD/svg11.dtd">
<svg version="1.1" id="Layer_1" xmlns="http://www.w3.org/2000/svg" xmlns:xlink="http://www.w3.org/1999/xlink" x="0px" y="0px"
	 viewBox="0 0 311 741" enable-background="new 0 0 311 741" xml:space="preserve">
<g>
	<rect fill="#A3BFB7" width="311" height="741"/>
	<rect x="50" y="47" fill="#8FB3B3" width="86" height="390"/>
	<rect x="171" y="47" fill="#8FB3B3" width="86" height="390"/>
	<rect x="50" y="467" fill="#8FB3B3" width="86" height="235"/>
	<rect x="171" y="467" fill="#8FB3B3" width="86" height="235"/>
	<path fill="#534741" d="M239.1,389.2c0.5-2,1-4.3,1.6-6.7c9.3-4.1,19.4-8.2,36.1-9.2c1.3-0.5,2.6-0.8,4.1-0.8
		c1.2,0,2.1,0.2,3.2,0.5c0.4,0,0.9,0,0.9,0v0.4c5,1.8,7.2,5.8,7.2,10.6c0,6.4-5,11.5-11.4,11.5c-5.6,0-10.3-4.1-11.3-9.4
		c-10.6,1.5-17.8,4.6-25.1,7.9c-2-0.8-3.8-1.8-4.9-2.9c-0.3-0.3-0.5-0.7-0.6-1.2C239,389.6,239.1,389.4,239.1,389.2z"/>
</g>
<rect x="108.7" y="440.9" fill="#F5D662" width="95.5" height="21"/>
</svg>
